<?xml version="1.0" encoding="UTF-8" standalone="no"?>
<!DOCTYPE svg PUBLIC "-//W3C//DTD SVG 1.1//EN"
 "http://www.w3.org/Graphics/SVG/1.1/DTD/svg11.dtd">
<!-- Generated by graphviz version 2.28.0 (20110509.1545)
 -->
<!-- Title: G Pages: 1 -->
<svg width="1270pt" height="206pt"
 viewBox="0.00 0.00 1270.00 206.00" xmlns="http://www.w3.org/2000/svg" xmlns:xlink="http://www.w3.org/1999/xlink">
<g id="graph1" class="graph" transform="scale(1 1) rotate(0) translate(4 202)">
<title>G</title>
<polygon fill="white" stroke="white" points="-4,5 -4,-202 1267,-202 1267,5 -4,5"/>
<!-- A -->
<g id="node1" class="node"><title>A</title>
<polygon fill="lightgrey" stroke="black" points="173,-123.602 136.969,-86.6992 209.031,-86.6992 173,-123.602"/>
<text text-anchor="middle" x="173" y="-93.4" font-family="Times,serif" font-size="14.00">A</text>
</g>
<!-- B -->
<g id="node2" class="node"><title>B</title>
<polygon fill="lightgrey" stroke="black" points="262,-123.602 227.566,-86.6992 296.434,-86.6992 262,-123.602"/>
<text text-anchor="middle" x="262" y="-93.4" font-family="Times,serif" font-size="14.00">B</text>
</g>
<!-- node0 -->
<g id="node3" class="node"><title>node0</title>
<polygon fill="none" stroke="black" points="259.25,-161 259.25,-197 476.75,-197 476.75,-161 259.25,-161"/>
<text text-anchor="middle" x="269" y="-173.4" font-family="Times,serif" font-size="14.00"> </text>
<polyline fill="none" stroke="black" points="278.75,-161 278.75,-197 "/>
<text text-anchor="middle" x="293.75" y="-173.4" font-family="Times,serif" font-size="14.00">10</text>
<polyline fill="none" stroke="black" points="308.75,-161 308.75,-197 "/>
<text text-anchor="middle" x="318.5" y="-173.4" font-family="Times,serif" font-size="14.00"> </text>
<polyline fill="none" stroke="black" points="328.25,-161 328.25,-197 "/>
<text text-anchor="middle" x="343.25" y="-173.4" font-family="Times,serif" font-size="14.00">30</text>
<polyline fill="none" stroke="black" points="358.25,-161 358.25,-197 "/>
<text text-anchor="middle" x="368" y="-173.4" font-family="Times,serif" font-size="14.00"> </text>
<polyline fill="none" stroke="black" points="377.75,-161 377.75,-197 "/>
<text text-anchor="middle" x="392.75" y="-173.4" font-family="Times,serif" font-size="14.00">80</text>
<polyline fill="none" stroke="black" points="407.75,-161 407.75,-197 "/>
<text text-anchor="middle" x="417.5" y="-173.4" font-family="Times,serif" font-size="14.00"> </text>
<polyline fill="none" stroke="black" points="427.25,-161 427.25,-197 "/>
<text text-anchor="middle" x="442.25" y="-173.4" font-family="Times,serif" font-size="14.00">__</text>
<polyline fill="none" stroke="black" points="457.25,-161 457.25,-197 "/>
<text text-anchor="middle" x="467" y="-173.4" font-family="Times,serif" font-size="14.00"> </text>
</g>
<!-- node0&#45;&gt;A -->
<g id="edge2" class="edge"><title>node0:f0&#45;&gt;A</title>
<path fill="none" stroke="black" d="M269,-160C269,-155.762 225.412,-129.993 196.977,-113.633"/>
<polygon fill="black" stroke="black" points="198.417,-110.424 188,-108.491 194.937,-116.498 198.417,-110.424"/>
</g>
<!-- node0&#45;&gt;B -->
<g id="edge4" class="edge"><title>node0:f2&#45;&gt;B</title>
<path fill="none" stroke="black" d="M318,-160C318,-139.87 300.946,-123.685 285.66,-113.222"/>
<polygon fill="black" stroke="black" points="287.327,-110.134 277.007,-107.735 283.578,-116.046 287.327,-110.134"/>
</g>
<!-- node1 -->
<g id="node4" class="node"><title>node1</title>
<polygon fill="none" stroke="black" points="315.25,-81 315.25,-117 532.75,-117 532.75,-81 315.25,-81"/>
<text text-anchor="middle" x="325" y="-93.4" font-family="Times,serif" font-size="14.00"> </text>
<polyline fill="none" stroke="black" points="334.75,-81 334.75,-117 "/>
<text text-anchor="middle" x="349.75" y="-93.4" font-family="Times,serif" font-size="14.00">35</text>
<polyline fill="none" stroke="black" points="364.75,-81 364.75,-117 "/>
<text text-anchor="middle" x="374.5" y="-93.4" font-family="Times,serif" font-size="14.00"> </text>
<polyline fill="none" stroke="black" points="384.25,-81 384.25,-117 "/>
<text text-anchor="middle" x="399.25" y="-93.4" font-family="Times,serif" font-size="14.00">42</text>
<polyline fill="none" stroke="black" points="414.25,-81 414.25,-117 "/>
<text text-anchor="middle" x="424" y="-93.4" font-family="Times,serif" font-size="14.00"> </text>
<polyline fill="none" stroke="black" points="433.75,-81 433.75,-117 "/>
<text text-anchor="middle" x="448.75" y="-93.4" font-family="Times,serif" font-size="14.00">50</text>
<polyline fill="none" stroke="black" points="463.75,-81 463.75,-117 "/>
<text text-anchor="middle" x="473.5" y="-93.4" font-family="Times,serif" font-size="14.00"> </text>
<polyline fill="none" stroke="black" points="483.25,-81 483.25,-117 "/>
<text text-anchor="middle" x="498.25" y="-93.4" font-family="Times,serif" font-size="14.00">65</text>
<polyline fill="none" stroke="black" points="513.25,-81 513.25,-117 "/>
<text text-anchor="middle" x="523" y="-93.4" font-family="Times,serif" font-size="14.00"> </text>
</g>
<!-- node0&#45;&gt;node1 -->
<g id="edge6" class="edge"><title>node0:f4&#45;&gt;node1</title>
<path fill="none" stroke="black" d="M368,-160C368,-145.668 376.645,-133.335 387.142,-123.644"/>
<polygon fill="black" stroke="black" points="389.588,-126.161 395.016,-117.063 385.098,-120.79 389.588,-126.161"/>
</g>
<!-- node2 -->
<g id="node5" class="node"><title>node2</title>
<polygon fill="none" stroke="black" points="894.25,-81 894.25,-117 1111.75,-117 1111.75,-81 894.25,-81"/>
<text text-anchor="middle" x="904" y="-93.4" font-family="Times,serif" font-size="14.00"> </text>
<polyline fill="none" stroke="black" points="913.75,-81 913.75,-117 "/>
<text text-anchor="middle" x="928.75" y="-93.4" font-family="Times,serif" font-size="14.00">90</text>
<polyline fill="none" stroke="black" points="943.75,-81 943.75,-117 "/>
<text text-anchor="middle" x="953.5" y="-93.4" font-family="Times,serif" font-size="14.00"> </text>
<polyline fill="none" stroke="black" points="963.25,-81 963.25,-117 "/>
<text text-anchor="middle" x="978.25" y="-93.4" font-family="Times,serif" font-size="14.00">98</text>
<polyline fill="none" stroke="black" points="993.25,-81 993.25,-117 "/>
<text text-anchor="middle" x="1003" y="-93.4" font-family="Times,serif" font-size="14.00"> </text>
<polyline fill="none" stroke="black" points="1012.75,-81 1012.75,-117 "/>
<text text-anchor="middle" x="1027.75" y="-93.4" font-family="Times,serif" font-size="14.00">__</text>
<polyline fill="none" stroke="black" points="1042.75,-81 1042.75,-117 "/>
<text text-anchor="middle" x="1052.5" y="-93.4" font-family="Times,serif" font-size="14.00"> </text>
<polyline fill="none" stroke="black" points="1062.25,-81 1062.25,-117 "/>
<text text-anchor="middle" x="1077.25" y="-93.4" font-family="Times,serif" font-size="14.00">__</text>
<polyline fill="none" stroke="black" points="1092.25,-81 1092.25,-117 "/>
<text text-anchor="middle" x="1102" y="-93.4" font-family="Times,serif" font-size="14.00"> </text>
</g>
<!-- node0&#45;&gt;node2 -->
<g id="edge8" class="edge"><title>node0:f6&#45;&gt;node2</title>
<path fill="none" stroke="black" d="M418,-160C418,-136.805 712.88,-116.302 883.924,-106.36"/>
<polygon fill="black" stroke="black" points="884.213,-109.849 893.995,-105.778 883.81,-102.861 884.213,-109.849"/>
</g>
<!-- leaf0 -->
<g id="node6" class="node"><title>leaf0</title>
<polygon fill="none" stroke="black" points="0,-1 0,-37 134,-37 134,-1 0,-1"/>
<text text-anchor="middle" x="18.5" y="-13.4" font-family="Times,serif" font-size="14.00">30*</text>
<polyline fill="none" stroke="black" points="37,-1 37,-37 "/>
<text text-anchor="middle" x="55.5" y="-13.4" font-family="Times,serif" font-size="14.00">31*</text>
<polyline fill="none" stroke="black" points="74,-1 74,-37 "/>
<text text-anchor="middle" x="89" y="-13.4" font-family="Times,serif" font-size="14.00">__</text>
<polyline fill="none" stroke="black" points="104,-1 104,-37 "/>
<text text-anchor="middle" x="119" y="-13.4" font-family="Times,serif" font-size="14.00">__</text>
</g>
<!-- node1&#45;&gt;leaf0 -->
<g id="edge10" class="edge"><title>node1:f0&#45;&gt;leaf0</title>
<path fill="none" stroke="black" d="M314,-99C302.191,-99 313.863,-81.8041 305,-74 252.023,-27.3523 217.912,-52.1306 144.286,-38.0876"/>
<polygon fill="black" stroke="black" points="144.631,-34.5837 134.125,-35.9514 143.191,-41.434 144.631,-34.5837"/>
</g>
<!-- leaf1 -->
<g id="node7" class="node"><title>leaf1</title>
<polygon fill="none" stroke="black" points="152,-1 152,-37 286,-37 286,-1 152,-1"/>
<text text-anchor="middle" x="170.5" y="-13.4" font-family="Times,serif" font-size="14.00">36*</text>
<polyline fill="none" stroke="black" points="189,-1 189,-37 "/>
<text text-anchor="middle" x="207.5" y="-13.4" font-family="Times,serif" font-size="14.00">38*</text>
<polyline fill="none" stroke="black" points="226,-1 226,-37 "/>
<text text-anchor="middle" x="241" y="-13.4" font-family="Times,serif" font-size="14.00">__</text>
<polyline fill="none" stroke="black" points="256,-1 256,-37 "/>
<text text-anchor="middle" x="271" y="-13.4" font-family="Times,serif" font-size="14.00">__</text>
</g>
<!-- node1&#45;&gt;leaf1 -->
<g id="edge12" class="edge"><title>node1:f2&#45;&gt;leaf1</title>
<path fill="none" stroke="black" d="M374,-80C374,-70.0281 328.807,-53.3312 287.227,-40.0793"/>
<polygon fill="black" stroke="black" points="288.188,-36.7128 277.599,-37.0501 286.087,-43.3901 288.188,-36.7128"/>
</g>
<!-- leaf2 -->
<g id="node8" class="node"><title>leaf2</title>
<polygon fill="none" stroke="black" points="304,-1 304,-37 438,-37 438,-1 304,-1"/>
<text text-anchor="middle" x="322.5" y="-13.4" font-family="Times,serif" font-size="14.00">42*</text>
<polyline fill="none" stroke="black" points="341,-1 341,-37 "/>
<text text-anchor="middle" x="359.5" y="-13.4" font-family="Times,serif" font-size="14.00">43*</text>
<polyline fill="none" stroke="black" points="378,-1 378,-37 "/>
<text text-anchor="middle" x="393" y="-13.4" font-family="Times,serif" font-size="14.00">__</text>
<polyline fill="none" stroke="black" points="408,-1 408,-37 "/>
<text text-anchor="middle" x="423" y="-13.4" font-family="Times,serif" font-size="14.00">__</text>
</g>
<!-- node1&#45;&gt;leaf2 -->
<g id="edge14" class="edge"><title>node1:f4&#45;&gt;leaf2</title>
<path fill="none" stroke="black" d="M424,-80C424,-65.9081 415.686,-53.5669 405.644,-43.8001"/>
<polygon fill="black" stroke="black" points="407.933,-41.1519 398.121,-37.1552 403.299,-46.3985 407.933,-41.1519"/>
</g>
<!-- leaf3 -->
<g id="node9" class="node"><title>leaf3</title>
<polygon fill="none" stroke="black" points="456.5,-1 456.5,-37 597.5,-37 597.5,-1 456.5,-1"/>
<text text-anchor="middle" x="475" y="-13.4" font-family="Times,serif" font-size="14.00">51*</text>
<polyline fill="none" stroke="black" points="493.5,-1 493.5,-37 "/>
<text text-anchor="middle" x="512" y="-13.4" font-family="Times,serif" font-size="14.00">52*</text>
<polyline fill="none" stroke="black" points="530.5,-1 530.5,-37 "/>
<text text-anchor="middle" x="549" y="-13.4" font-family="Times,serif" font-size="14.00">56*</text>
<polyline fill="none" stroke="black" points="567.5,-1 567.5,-37 "/>
<text text-anchor="middle" x="582.5" y="-13.4" font-family="Times,serif" font-size="14.00">__</text>
</g>
<!-- node1&#45;&gt;leaf3 -->
<g id="edge16" class="edge"><title>node1:f6&#45;&gt;leaf3</title>
<path fill="none" stroke="black" d="M474,-80C474,-65.9081 482.314,-53.5669 492.356,-43.8001"/>
<polygon fill="black" stroke="black" points="494.701,-46.3985 499.879,-37.1552 490.067,-41.1519 494.701,-46.3985"/>
</g>
<!-- leaf4 -->
<g id="node10" class="node"><title>leaf4</title>
<polygon fill="none" stroke="black" points="616,-1 616,-37 764,-37 764,-1 616,-1"/>
<text text-anchor="middle" x="634.5" y="-13.4" font-family="Times,serif" font-size="14.00">68*</text>
<polyline fill="none" stroke="black" points="653,-1 653,-37 "/>
<text text-anchor="middle" x="671.5" y="-13.4" font-family="Times,serif" font-size="14.00">69*</text>
<polyline fill="none" stroke="black" points="690,-1 690,-37 "/>
<text text-anchor="middle" x="708.5" y="-13.4" font-family="Times,serif" font-size="14.00">70*</text>
<polyline fill="none" stroke="black" points="727,-1 727,-37 "/>
<text text-anchor="middle" x="745.5" y="-13.4" font-family="Times,serif" font-size="14.00">79*</text>
</g>
<!-- node1&#45;&gt;leaf4 -->
<g id="edge18" class="edge"><title>node1:f8&#45;&gt;leaf4</title>
<path fill="none" stroke="black" d="M534,-99C583.671,-99 633.574,-66.7296 663.122,-43.4387"/>
<polygon fill="black" stroke="black" points="665.329,-46.1546 670.899,-37.1418 660.925,-40.7142 665.329,-46.1546"/>
</g>
<!-- leaf5 -->
<g id="node11" class="node"><title>leaf5</title>
<polygon fill="none" stroke="black" points="782,-1 782,-37 916,-37 916,-1 782,-1"/>
<text text-anchor="middle" x="800.5" y="-13.4" font-family="Times,serif" font-size="14.00">81*</text>
<polyline fill="none" stroke="black" points="819,-1 819,-37 "/>
<text text-anchor="middle" x="837.5" y="-13.4" font-family="Times,serif" font-size="14.00">82*</text>
<polyline fill="none" stroke="black" points="856,-1 856,-37 "/>
<text text-anchor="middle" x="871" y="-13.4" font-family="Times,serif" font-size="14.00">__</text>
<polyline fill="none" stroke="black" points="886,-1 886,-37 "/>
<text text-anchor="middle" x="901" y="-13.4" font-family="Times,serif" font-size="14.00">__</text>
</g>
<!-- node2&#45;&gt;leaf5 -->
<g id="edge20" class="edge"><title>node2:f0&#45;&gt;leaf5</title>
<path fill="none" stroke="black" d="M904,-80C904,-65.7863 895.509,-53.4792 885.2,-43.7748"/>
<polygon fill="black" stroke="black" points="887.346,-41.0055 877.467,-37.1785 882.803,-46.3312 887.346,-41.0055"/>
</g>
<!-- leaf6 -->
<g id="node12" class="node"><title>leaf6</title>
<polygon fill="none" stroke="black" points="934,-1 934,-37 1082,-37 1082,-1 934,-1"/>
<text text-anchor="middle" x="952.5" y="-13.4" font-family="Times,serif" font-size="14.00">94*</text>
<polyline fill="none" stroke="black" points="971,-1 971,-37 "/>
<text text-anchor="middle" x="989.5" y="-13.4" font-family="Times,serif" font-size="14.00">95*</text>
<polyline fill="none" stroke="black" points="1008,-1 1008,-37 "/>
<text text-anchor="middle" x="1026.5" y="-13.4" font-family="Times,serif" font-size="14.00">96*</text>
<polyline fill="none" stroke="black" points="1045,-1 1045,-37 "/>
<text text-anchor="middle" x="1063.5" y="-13.4" font-family="Times,serif" font-size="14.00">97*</text>
</g>
<!-- node2&#45;&gt;leaf6 -->
<g id="edge22" class="edge"><title>node2:f2&#45;&gt;leaf6</title>
<path fill="none" stroke="black" d="M953,-80C953,-65.7863 961.491,-53.4792 971.8,-43.7748"/>
<polygon fill="black" stroke="black" points="974.197,-46.3312 979.533,-37.1785 969.654,-41.0055 974.197,-46.3312"/>
</g>
<!-- leaf7 -->
<g id="node13" class="node"><title>leaf7</title>
<polygon fill="none" stroke="black" points="1100,-1 1100,-37 1262,-37 1262,-1 1100,-1"/>
<text text-anchor="middle" x="1118.5" y="-13.4" font-family="Times,serif" font-size="14.00">98*</text>
<polyline fill="none" stroke="black" points="1137,-1 1137,-37 "/>
<text text-anchor="middle" x="1155.5" y="-13.4" font-family="Times,serif" font-size="14.00">99*</text>
<polyline fill="none" stroke="black" points="1174,-1 1174,-37 "/>
<text text-anchor="middle" x="1196" y="-13.4" font-family="Times,serif" font-size="14.00">100*</text>
<polyline fill="none" stroke="black" points="1218,-1 1218,-37 "/>
<text text-anchor="middle" x="1240" y="-13.4" font-family="Times,serif" font-size="14.00">105*</text>
</g>
<!-- node2&#45;&gt;leaf7 -->
<g id="edge24" class="edge"><title>node2:f4&#45;&gt;leaf7</title>
<path fill="none" stroke="black" d="M1003,-80C1003,-68.845 1053.85,-52.4747 1101.19,-39.6503"/>
<polygon fill="black" stroke="black" points="1102.15,-43.0167 1110.91,-37.0531 1100.34,-36.2541 1102.15,-43.0167"/>
</g>
</g>
</svg>
