<?xml version="1.0" encoding="UTF-8" standalone="no"?>
<!DOCTYPE svg PUBLIC "-//W3C//DTD SVG 1.1//EN"
 "http://www.w3.org/Graphics/SVG/1.1/DTD/svg11.dtd">
<!-- Generated by graphviz version 2.28.0 (20110509.1545)
 -->
<!-- Title: G Pages: 1 -->
<svg width="1262pt" height="206pt"
 viewBox="0.00 0.00 1262.00 206.00" xmlns="http://www.w3.org/2000/svg" xmlns:xlink="http://www.w3.org/1999/xlink">
<g id="graph1" class="graph" transform="scale(1 1) rotate(0) translate(4 202)">
<title>G</title>
<polygon fill="white" stroke="white" points="-4,5 -4,-202 1259,-202 1259,5 -4,5"/>
<!-- A -->
<g id="node1" class="node"><title>A</title>
<polygon fill="lightgrey" stroke="black" points="171,-123.602 134.969,-86.6992 207.031,-86.6992 171,-123.602"/>
<text text-anchor="middle" x="171" y="-93.4" font-family="Times,serif" font-size="14.00">A</text>
</g>
<!-- B -->
<g id="node2" class="node"><title>B</title>
<polygon fill="lightgrey" stroke="black" points="260,-123.602 225.566,-86.6992 294.434,-86.6992 260,-123.602"/>
<text text-anchor="middle" x="260" y="-93.4" font-family="Times,serif" font-size="14.00">B</text>
</g>
<!-- node0 -->
<g id="node3" class="node"><title>node0</title>
<polygon fill="none" stroke="black" points="257.25,-161 257.25,-197 474.75,-197 474.75,-161 257.25,-161"/>
<text text-anchor="middle" x="267" y="-173.4" font-family="Times,serif" font-size="14.00"> </text>
<polyline fill="none" stroke="black" points="276.75,-161 276.75,-197 "/>
<text text-anchor="middle" x="291.75" y="-173.4" font-family="Times,serif" font-size="14.00">10</text>
<polyline fill="none" stroke="black" points="306.75,-161 306.75,-197 "/>
<text text-anchor="middle" x="316.5" y="-173.4" font-family="Times,serif" font-size="14.00"> </text>
<polyline fill="none" stroke="black" points="326.25,-161 326.25,-197 "/>
<text text-anchor="middle" x="341.25" y="-173.4" font-family="Times,serif" font-size="14.00">30</text>
<polyline fill="none" stroke="black" points="356.25,-161 356.25,-197 "/>
<text text-anchor="middle" x="366" y="-173.4" font-family="Times,serif" font-size="14.00"> </text>
<polyline fill="none" stroke="black" points="375.75,-161 375.75,-197 "/>
<text text-anchor="middle" x="390.75" y="-173.4" font-family="Times,serif" font-size="14.00">80</text>
<polyline fill="none" stroke="black" points="405.75,-161 405.75,-197 "/>
<text text-anchor="middle" x="415.5" y="-173.4" font-family="Times,serif" font-size="14.00"> </text>
<polyline fill="none" stroke="black" points="425.25,-161 425.25,-197 "/>
<text text-anchor="middle" x="440.25" y="-173.4" font-family="Times,serif" font-size="14.00">__</text>
<polyline fill="none" stroke="black" points="455.25,-161 455.25,-197 "/>
<text text-anchor="middle" x="465" y="-173.4" font-family="Times,serif" font-size="14.00"> </text>
</g>
<!-- node0&#45;&gt;A -->
<g id="edge2" class="edge"><title>node0:f0&#45;&gt;A</title>
<path fill="none" stroke="black" d="M267,-160C267,-155.762 223.412,-129.993 194.977,-113.633"/>
<polygon fill="black" stroke="black" points="196.417,-110.424 186,-108.491 192.937,-116.498 196.417,-110.424"/>
</g>
<!-- node0&#45;&gt;B -->
<g id="edge4" class="edge"><title>node0:f2&#45;&gt;B</title>
<path fill="none" stroke="black" d="M316,-160C316,-139.87 298.946,-123.685 283.66,-113.222"/>
<polygon fill="black" stroke="black" points="285.327,-110.134 275.007,-107.735 281.578,-116.046 285.327,-110.134"/>
</g>
<!-- node1 -->
<g id="node4" class="node"><title>node1</title>
<polygon fill="none" stroke="black" points="313.25,-81 313.25,-117 530.75,-117 530.75,-81 313.25,-81"/>
<text text-anchor="middle" x="323" y="-93.4" font-family="Times,serif" font-size="14.00"> </text>
<polyline fill="none" stroke="black" points="332.75,-81 332.75,-117 "/>
<text text-anchor="middle" x="347.75" y="-93.4" font-family="Times,serif" font-size="14.00">35</text>
<polyline fill="none" stroke="black" points="362.75,-81 362.75,-117 "/>
<text text-anchor="middle" x="372.5" y="-93.4" font-family="Times,serif" font-size="14.00"> </text>
<polyline fill="none" stroke="black" points="382.25,-81 382.25,-117 "/>
<text text-anchor="middle" x="397.25" y="-93.4" font-family="Times,serif" font-size="14.00">42</text>
<polyline fill="none" stroke="black" points="412.25,-81 412.25,-117 "/>
<text text-anchor="middle" x="422" y="-93.4" font-family="Times,serif" font-size="14.00"> </text>
<polyline fill="none" stroke="black" points="431.75,-81 431.75,-117 "/>
<text text-anchor="middle" x="446.75" y="-93.4" font-family="Times,serif" font-size="14.00">52</text>
<polyline fill="none" stroke="black" points="461.75,-81 461.75,-117 "/>
<text text-anchor="middle" x="471.5" y="-93.4" font-family="Times,serif" font-size="14.00"> </text>
<polyline fill="none" stroke="black" points="481.25,-81 481.25,-117 "/>
<text text-anchor="middle" x="496.25" y="-93.4" font-family="Times,serif" font-size="14.00">65</text>
<polyline fill="none" stroke="black" points="511.25,-81 511.25,-117 "/>
<text text-anchor="middle" x="521" y="-93.4" font-family="Times,serif" font-size="14.00"> </text>
</g>
<!-- node0&#45;&gt;node1 -->
<g id="edge6" class="edge"><title>node0:f4&#45;&gt;node1</title>
<path fill="none" stroke="black" d="M366,-160C366,-145.668 374.645,-133.335 385.142,-123.644"/>
<polygon fill="black" stroke="black" points="387.588,-126.161 393.016,-117.063 383.098,-120.79 387.588,-126.161"/>
</g>
<!-- node2 -->
<g id="node5" class="node"><title>node2</title>
<polygon fill="none" stroke="black" points="886.25,-81 886.25,-117 1103.75,-117 1103.75,-81 886.25,-81"/>
<text text-anchor="middle" x="896" y="-93.4" font-family="Times,serif" font-size="14.00"> </text>
<polyline fill="none" stroke="black" points="905.75,-81 905.75,-117 "/>
<text text-anchor="middle" x="920.75" y="-93.4" font-family="Times,serif" font-size="14.00">90</text>
<polyline fill="none" stroke="black" points="935.75,-81 935.75,-117 "/>
<text text-anchor="middle" x="945.5" y="-93.4" font-family="Times,serif" font-size="14.00"> </text>
<polyline fill="none" stroke="black" points="955.25,-81 955.25,-117 "/>
<text text-anchor="middle" x="970.25" y="-93.4" font-family="Times,serif" font-size="14.00">98</text>
<polyline fill="none" stroke="black" points="985.25,-81 985.25,-117 "/>
<text text-anchor="middle" x="995" y="-93.4" font-family="Times,serif" font-size="14.00"> </text>
<polyline fill="none" stroke="black" points="1004.75,-81 1004.75,-117 "/>
<text text-anchor="middle" x="1019.75" y="-93.4" font-family="Times,serif" font-size="14.00">__</text>
<polyline fill="none" stroke="black" points="1034.75,-81 1034.75,-117 "/>
<text text-anchor="middle" x="1044.5" y="-93.4" font-family="Times,serif" font-size="14.00"> </text>
<polyline fill="none" stroke="black" points="1054.25,-81 1054.25,-117 "/>
<text text-anchor="middle" x="1069.25" y="-93.4" font-family="Times,serif" font-size="14.00">__</text>
<polyline fill="none" stroke="black" points="1084.25,-81 1084.25,-117 "/>
<text text-anchor="middle" x="1094" y="-93.4" font-family="Times,serif" font-size="14.00"> </text>
</g>
<!-- node0&#45;&gt;node2 -->
<g id="edge8" class="edge"><title>node0:f6&#45;&gt;node2</title>
<path fill="none" stroke="black" d="M416,-160C416,-137.098 706.387,-116.542 875.863,-106.495"/>
<polygon fill="black" stroke="black" points="876.318,-109.975 886.095,-105.893 875.906,-102.987 876.318,-109.975"/>
</g>
<!-- leaf0 -->
<g id="node6" class="node"><title>leaf0</title>
<polygon fill="none" stroke="black" points="0,-1 0,-37 134,-37 134,-1 0,-1"/>
<text text-anchor="middle" x="18.5" y="-13.4" font-family="Times,serif" font-size="14.00">30*</text>
<polyline fill="none" stroke="black" points="37,-1 37,-37 "/>
<text text-anchor="middle" x="55.5" y="-13.4" font-family="Times,serif" font-size="14.00">31*</text>
<polyline fill="none" stroke="black" points="74,-1 74,-37 "/>
<text text-anchor="middle" x="89" y="-13.4" font-family="Times,serif" font-size="14.00">__</text>
<polyline fill="none" stroke="black" points="104,-1 104,-37 "/>
<text text-anchor="middle" x="119" y="-13.4" font-family="Times,serif" font-size="14.00">__</text>
</g>
<!-- node1&#45;&gt;leaf0 -->
<g id="edge10" class="edge"><title>node1:f0&#45;&gt;leaf0</title>
<path fill="none" stroke="black" d="M312,-99C300.191,-99 311.853,-81.8159 303,-74 250.707,-27.8317 217.009,-52.0801 144.179,-38.07"/>
<polygon fill="black" stroke="black" points="144.635,-34.5892 134.127,-35.9417 143.185,-41.4373 144.635,-34.5892"/>
</g>
<!-- leaf1 -->
<g id="node7" class="node"><title>leaf1</title>
<polygon fill="none" stroke="black" points="152,-1 152,-37 286,-37 286,-1 152,-1"/>
<text text-anchor="middle" x="170.5" y="-13.4" font-family="Times,serif" font-size="14.00">36*</text>
<polyline fill="none" stroke="black" points="189,-1 189,-37 "/>
<text text-anchor="middle" x="207.5" y="-13.4" font-family="Times,serif" font-size="14.00">38*</text>
<polyline fill="none" stroke="black" points="226,-1 226,-37 "/>
<text text-anchor="middle" x="241" y="-13.4" font-family="Times,serif" font-size="14.00">__</text>
<polyline fill="none" stroke="black" points="256,-1 256,-37 "/>
<text text-anchor="middle" x="271" y="-13.4" font-family="Times,serif" font-size="14.00">__</text>
</g>
<!-- node1&#45;&gt;leaf1 -->
<g id="edge12" class="edge"><title>node1:f2&#45;&gt;leaf1</title>
<path fill="none" stroke="black" d="M372,-80C372,-70.1606 327.578,-53.5043 286.606,-40.2343"/>
<polygon fill="black" stroke="black" points="287.434,-36.8245 276.843,-37.1133 285.302,-43.4921 287.434,-36.8245"/>
</g>
<!-- leaf2 -->
<g id="node8" class="node"><title>leaf2</title>
<polygon fill="none" stroke="black" points="304,-1 304,-37 438,-37 438,-1 304,-1"/>
<text text-anchor="middle" x="322.5" y="-13.4" font-family="Times,serif" font-size="14.00">42*</text>
<polyline fill="none" stroke="black" points="341,-1 341,-37 "/>
<text text-anchor="middle" x="359.5" y="-13.4" font-family="Times,serif" font-size="14.00">51*</text>
<polyline fill="none" stroke="black" points="378,-1 378,-37 "/>
<text text-anchor="middle" x="393" y="-13.4" font-family="Times,serif" font-size="14.00">__</text>
<polyline fill="none" stroke="black" points="408,-1 408,-37 "/>
<text text-anchor="middle" x="423" y="-13.4" font-family="Times,serif" font-size="14.00">__</text>
</g>
<!-- node1&#45;&gt;leaf2 -->
<g id="edge14" class="edge"><title>node1:f4&#45;&gt;leaf2</title>
<path fill="none" stroke="black" d="M422,-80C422,-66.1643 414.03,-53.8908 404.391,-44.1068"/>
<polygon fill="black" stroke="black" points="406.529,-41.3181 396.799,-37.1254 401.791,-46.4707 406.529,-41.3181"/>
</g>
<!-- leaf3 -->
<g id="node9" class="node"><title>leaf3</title>
<polygon fill="none" stroke="black" points="456,-1 456,-37 590,-37 590,-1 456,-1"/>
<text text-anchor="middle" x="474.5" y="-13.4" font-family="Times,serif" font-size="14.00">52*</text>
<polyline fill="none" stroke="black" points="493,-1 493,-37 "/>
<text text-anchor="middle" x="511.5" y="-13.4" font-family="Times,serif" font-size="14.00">56*</text>
<polyline fill="none" stroke="black" points="530,-1 530,-37 "/>
<text text-anchor="middle" x="545" y="-13.4" font-family="Times,serif" font-size="14.00">__</text>
<polyline fill="none" stroke="black" points="560,-1 560,-37 "/>
<text text-anchor="middle" x="575" y="-13.4" font-family="Times,serif" font-size="14.00">__</text>
</g>
<!-- node1&#45;&gt;leaf3 -->
<g id="edge16" class="edge"><title>node1:f6&#45;&gt;leaf3</title>
<path fill="none" stroke="black" d="M472,-80C472,-66.1643 479.97,-53.8908 489.609,-44.1068"/>
<polygon fill="black" stroke="black" points="492.209,-46.4707 497.201,-37.1254 487.471,-41.3181 492.209,-46.4707"/>
</g>
<!-- leaf4 -->
<g id="node10" class="node"><title>leaf4</title>
<polygon fill="none" stroke="black" points="608,-1 608,-37 756,-37 756,-1 608,-1"/>
<text text-anchor="middle" x="626.5" y="-13.4" font-family="Times,serif" font-size="14.00">68*</text>
<polyline fill="none" stroke="black" points="645,-1 645,-37 "/>
<text text-anchor="middle" x="663.5" y="-13.4" font-family="Times,serif" font-size="14.00">69*</text>
<polyline fill="none" stroke="black" points="682,-1 682,-37 "/>
<text text-anchor="middle" x="700.5" y="-13.4" font-family="Times,serif" font-size="14.00">70*</text>
<polyline fill="none" stroke="black" points="719,-1 719,-37 "/>
<text text-anchor="middle" x="737.5" y="-13.4" font-family="Times,serif" font-size="14.00">79*</text>
</g>
<!-- node1&#45;&gt;leaf4 -->
<g id="edge18" class="edge"><title>node1:f8&#45;&gt;leaf4</title>
<path fill="none" stroke="black" d="M532,-99C579.951,-99 627.621,-67.0048 655.947,-43.7377"/>
<polygon fill="black" stroke="black" points="658.373,-46.2699 663.751,-37.1418 653.854,-40.9235 658.373,-46.2699"/>
</g>
<!-- leaf5 -->
<g id="node11" class="node"><title>leaf5</title>
<polygon fill="none" stroke="black" points="774,-1 774,-37 908,-37 908,-1 774,-1"/>
<text text-anchor="middle" x="792.5" y="-13.4" font-family="Times,serif" font-size="14.00">81*</text>
<polyline fill="none" stroke="black" points="811,-1 811,-37 "/>
<text text-anchor="middle" x="829.5" y="-13.4" font-family="Times,serif" font-size="14.00">82*</text>
<polyline fill="none" stroke="black" points="848,-1 848,-37 "/>
<text text-anchor="middle" x="863" y="-13.4" font-family="Times,serif" font-size="14.00">__</text>
<polyline fill="none" stroke="black" points="878,-1 878,-37 "/>
<text text-anchor="middle" x="893" y="-13.4" font-family="Times,serif" font-size="14.00">__</text>
</g>
<!-- node2&#45;&gt;leaf5 -->
<g id="edge20" class="edge"><title>node2:f0&#45;&gt;leaf5</title>
<path fill="none" stroke="black" d="M896,-80C896,-65.7863 887.509,-53.4792 877.2,-43.7748"/>
<polygon fill="black" stroke="black" points="879.346,-41.0055 869.467,-37.1785 874.803,-46.3312 879.346,-41.0055"/>
</g>
<!-- leaf6 -->
<g id="node12" class="node"><title>leaf6</title>
<polygon fill="none" stroke="black" points="926,-1 926,-37 1074,-37 1074,-1 926,-1"/>
<text text-anchor="middle" x="944.5" y="-13.4" font-family="Times,serif" font-size="14.00">94*</text>
<polyline fill="none" stroke="black" points="963,-1 963,-37 "/>
<text text-anchor="middle" x="981.5" y="-13.4" font-family="Times,serif" font-size="14.00">95*</text>
<polyline fill="none" stroke="black" points="1000,-1 1000,-37 "/>
<text text-anchor="middle" x="1018.5" y="-13.4" font-family="Times,serif" font-size="14.00">96*</text>
<polyline fill="none" stroke="black" points="1037,-1 1037,-37 "/>
<text text-anchor="middle" x="1055.5" y="-13.4" font-family="Times,serif" font-size="14.00">97*</text>
</g>
<!-- node2&#45;&gt;leaf6 -->
<g id="edge22" class="edge"><title>node2:f2&#45;&gt;leaf6</title>
<path fill="none" stroke="black" d="M945,-80C945,-65.7863 953.491,-53.4792 963.8,-43.7748"/>
<polygon fill="black" stroke="black" points="966.197,-46.3312 971.533,-37.1785 961.654,-41.0055 966.197,-46.3312"/>
</g>
<!-- leaf7 -->
<g id="node13" class="node"><title>leaf7</title>
<polygon fill="none" stroke="black" points="1092,-1 1092,-37 1254,-37 1254,-1 1092,-1"/>
<text text-anchor="middle" x="1110.5" y="-13.4" font-family="Times,serif" font-size="14.00">98*</text>
<polyline fill="none" stroke="black" points="1129,-1 1129,-37 "/>
<text text-anchor="middle" x="1147.5" y="-13.4" font-family="Times,serif" font-size="14.00">99*</text>
<polyline fill="none" stroke="black" points="1166,-1 1166,-37 "/>
<text text-anchor="middle" x="1188" y="-13.4" font-family="Times,serif" font-size="14.00">100*</text>
<polyline fill="none" stroke="black" points="1210,-1 1210,-37 "/>
<text text-anchor="middle" x="1232" y="-13.4" font-family="Times,serif" font-size="14.00">105*</text>
</g>
<!-- node2&#45;&gt;leaf7 -->
<g id="edge24" class="edge"><title>node2:f4&#45;&gt;leaf7</title>
<path fill="none" stroke="black" d="M995,-80C995,-68.845 1045.85,-52.4747 1093.19,-39.6503"/>
<polygon fill="black" stroke="black" points="1094.15,-43.0167 1102.91,-37.0531 1092.34,-36.2541 1094.15,-43.0167"/>
</g>
</g>
</svg>
