<?xml version="1.0" encoding="UTF-8" standalone="no"?>
<!DOCTYPE svg PUBLIC "-//W3C//DTD SVG 1.1//EN"
 "http://www.w3.org/Graphics/SVG/1.1/DTD/svg11.dtd">
<!-- Generated by graphviz version 2.28.0 (20110509.1545)
 -->
<!-- Title: G Pages: 1 -->
<svg width="1124pt" height="206pt"
 viewBox="0.00 0.00 1124.00 206.00" xmlns="http://www.w3.org/2000/svg" xmlns:xlink="http://www.w3.org/1999/xlink">
<g id="graph1" class="graph" transform="scale(1 1) rotate(0) translate(4 202)">
<title>G</title>
<polygon fill="white" stroke="white" points="-4,5 -4,-202 1121,-202 1121,5 -4,5"/>
<!-- A -->
<g id="node1" class="node"><title>A</title>
<polygon fill="lightgrey" stroke="black" points="127,-123.602 90.9687,-86.6992 163.031,-86.6992 127,-123.602"/>
<text text-anchor="middle" x="127" y="-93.4" font-family="Times,serif" font-size="14.00">A</text>
</g>
<!-- B -->
<g id="node2" class="node"><title>B</title>
<polygon fill="lightgrey" stroke="black" points="216,-123.602 181.566,-86.6992 250.434,-86.6992 216,-123.602"/>
<text text-anchor="middle" x="216" y="-93.4" font-family="Times,serif" font-size="14.00">B</text>
</g>
<!-- node0 -->
<g id="node3" class="node"><title>node0</title>
<polygon fill="none" stroke="black" points="213.25,-161 213.25,-197 430.75,-197 430.75,-161 213.25,-161"/>
<text text-anchor="middle" x="223" y="-173.4" font-family="Times,serif" font-size="14.00"> </text>
<polyline fill="none" stroke="black" points="232.75,-161 232.75,-197 "/>
<text text-anchor="middle" x="247.75" y="-173.4" font-family="Times,serif" font-size="14.00">10</text>
<polyline fill="none" stroke="black" points="262.75,-161 262.75,-197 "/>
<text text-anchor="middle" x="272.5" y="-173.4" font-family="Times,serif" font-size="14.00"> </text>
<polyline fill="none" stroke="black" points="282.25,-161 282.25,-197 "/>
<text text-anchor="middle" x="297.25" y="-173.4" font-family="Times,serif" font-size="14.00">30</text>
<polyline fill="none" stroke="black" points="312.25,-161 312.25,-197 "/>
<text text-anchor="middle" x="322" y="-173.4" font-family="Times,serif" font-size="14.00"> </text>
<polyline fill="none" stroke="black" points="331.75,-161 331.75,-197 "/>
<text text-anchor="middle" x="346.75" y="-173.4" font-family="Times,serif" font-size="14.00">80</text>
<polyline fill="none" stroke="black" points="361.75,-161 361.75,-197 "/>
<text text-anchor="middle" x="371.5" y="-173.4" font-family="Times,serif" font-size="14.00"> </text>
<polyline fill="none" stroke="black" points="381.25,-161 381.25,-197 "/>
<text text-anchor="middle" x="396.25" y="-173.4" font-family="Times,serif" font-size="14.00">__</text>
<polyline fill="none" stroke="black" points="411.25,-161 411.25,-197 "/>
<text text-anchor="middle" x="421" y="-173.4" font-family="Times,serif" font-size="14.00"> </text>
</g>
<!-- node0&#45;&gt;A -->
<g id="edge2" class="edge"><title>node0:f0&#45;&gt;A</title>
<path fill="none" stroke="black" d="M223,-160C223,-155.762 179.412,-129.993 150.977,-113.633"/>
<polygon fill="black" stroke="black" points="152.417,-110.424 142,-108.491 148.937,-116.498 152.417,-110.424"/>
</g>
<!-- node0&#45;&gt;B -->
<g id="edge4" class="edge"><title>node0:f2&#45;&gt;B</title>
<path fill="none" stroke="black" d="M272,-160C272,-139.87 254.946,-123.685 239.66,-113.222"/>
<polygon fill="black" stroke="black" points="241.327,-110.134 231.007,-107.735 237.578,-116.046 241.327,-110.134"/>
</g>
<!-- node1 -->
<g id="node4" class="node"><title>node1</title>
<polygon fill="none" stroke="black" points="269.25,-81 269.25,-117 486.75,-117 486.75,-81 269.25,-81"/>
<text text-anchor="middle" x="279" y="-93.4" font-family="Times,serif" font-size="14.00"> </text>
<polyline fill="none" stroke="black" points="288.75,-81 288.75,-117 "/>
<text text-anchor="middle" x="303.75" y="-93.4" font-family="Times,serif" font-size="14.00">35</text>
<polyline fill="none" stroke="black" points="318.75,-81 318.75,-117 "/>
<text text-anchor="middle" x="328.5" y="-93.4" font-family="Times,serif" font-size="14.00"> </text>
<polyline fill="none" stroke="black" points="338.25,-81 338.25,-117 "/>
<text text-anchor="middle" x="353.25" y="-93.4" font-family="Times,serif" font-size="14.00">42</text>
<polyline fill="none" stroke="black" points="368.25,-81 368.25,-117 "/>
<text text-anchor="middle" x="378" y="-93.4" font-family="Times,serif" font-size="14.00"> </text>
<polyline fill="none" stroke="black" points="387.75,-81 387.75,-117 "/>
<text text-anchor="middle" x="402.75" y="-93.4" font-family="Times,serif" font-size="14.00">65</text>
<polyline fill="none" stroke="black" points="417.75,-81 417.75,-117 "/>
<text text-anchor="middle" x="427.5" y="-93.4" font-family="Times,serif" font-size="14.00"> </text>
<polyline fill="none" stroke="black" points="437.25,-81 437.25,-117 "/>
<text text-anchor="middle" x="452.25" y="-93.4" font-family="Times,serif" font-size="14.00">__</text>
<polyline fill="none" stroke="black" points="467.25,-81 467.25,-117 "/>
<text text-anchor="middle" x="477" y="-93.4" font-family="Times,serif" font-size="14.00"> </text>
</g>
<!-- node0&#45;&gt;node1 -->
<g id="edge6" class="edge"><title>node0:f4&#45;&gt;node1</title>
<path fill="none" stroke="black" d="M322,-160C322,-145.668 330.645,-133.335 341.142,-123.644"/>
<polygon fill="black" stroke="black" points="343.588,-126.161 349.016,-117.063 339.098,-120.79 343.588,-126.161"/>
</g>
<!-- node2 -->
<g id="node5" class="node"><title>node2</title>
<polygon fill="none" stroke="black" points="748.25,-81 748.25,-117 965.75,-117 965.75,-81 748.25,-81"/>
<text text-anchor="middle" x="758" y="-93.4" font-family="Times,serif" font-size="14.00"> </text>
<polyline fill="none" stroke="black" points="767.75,-81 767.75,-117 "/>
<text text-anchor="middle" x="782.75" y="-93.4" font-family="Times,serif" font-size="14.00">90</text>
<polyline fill="none" stroke="black" points="797.75,-81 797.75,-117 "/>
<text text-anchor="middle" x="807.5" y="-93.4" font-family="Times,serif" font-size="14.00"> </text>
<polyline fill="none" stroke="black" points="817.25,-81 817.25,-117 "/>
<text text-anchor="middle" x="832.25" y="-93.4" font-family="Times,serif" font-size="14.00">98</text>
<polyline fill="none" stroke="black" points="847.25,-81 847.25,-117 "/>
<text text-anchor="middle" x="857" y="-93.4" font-family="Times,serif" font-size="14.00"> </text>
<polyline fill="none" stroke="black" points="866.75,-81 866.75,-117 "/>
<text text-anchor="middle" x="881.75" y="-93.4" font-family="Times,serif" font-size="14.00">__</text>
<polyline fill="none" stroke="black" points="896.75,-81 896.75,-117 "/>
<text text-anchor="middle" x="906.5" y="-93.4" font-family="Times,serif" font-size="14.00"> </text>
<polyline fill="none" stroke="black" points="916.25,-81 916.25,-117 "/>
<text text-anchor="middle" x="931.25" y="-93.4" font-family="Times,serif" font-size="14.00">__</text>
<polyline fill="none" stroke="black" points="946.25,-81 946.25,-117 "/>
<text text-anchor="middle" x="956" y="-93.4" font-family="Times,serif" font-size="14.00"> </text>
</g>
<!-- node0&#45;&gt;node2 -->
<g id="edge8" class="edge"><title>node0:f6&#45;&gt;node2</title>
<path fill="none" stroke="black" d="M372,-160C372,-141.617 594.361,-120.62 737.958,-108.977"/>
<polygon fill="black" stroke="black" points="738.47,-112.447 748.157,-108.155 737.908,-105.47 738.47,-112.447"/>
</g>
<!-- leaf0 -->
<g id="node6" class="node"><title>leaf0</title>
<polygon fill="none" stroke="black" points="0,-1 0,-37 134,-37 134,-1 0,-1"/>
<text text-anchor="middle" x="18.5" y="-13.4" font-family="Times,serif" font-size="14.00">30*</text>
<polyline fill="none" stroke="black" points="37,-1 37,-37 "/>
<text text-anchor="middle" x="55.5" y="-13.4" font-family="Times,serif" font-size="14.00">31*</text>
<polyline fill="none" stroke="black" points="74,-1 74,-37 "/>
<text text-anchor="middle" x="89" y="-13.4" font-family="Times,serif" font-size="14.00">__</text>
<polyline fill="none" stroke="black" points="104,-1 104,-37 "/>
<text text-anchor="middle" x="119" y="-13.4" font-family="Times,serif" font-size="14.00">__</text>
</g>
<!-- node1&#45;&gt;leaf0 -->
<g id="edge10" class="edge"><title>node1:f0&#45;&gt;leaf0</title>
<path fill="none" stroke="black" d="M268,-99C256.191,-99 267.643,-82.047 259,-74 254.454,-69.7675 194.675,-53.3123 143.012,-39.6672"/>
<polygon fill="black" stroke="black" points="143.703,-36.2299 133.142,-37.068 141.921,-42.9991 143.703,-36.2299"/>
</g>
<!-- leaf1 -->
<g id="node7" class="node"><title>leaf1</title>
<polygon fill="none" stroke="black" points="152,-1 152,-37 286,-37 286,-1 152,-1"/>
<text text-anchor="middle" x="170.5" y="-13.4" font-family="Times,serif" font-size="14.00">36*</text>
<polyline fill="none" stroke="black" points="189,-1 189,-37 "/>
<text text-anchor="middle" x="207.5" y="-13.4" font-family="Times,serif" font-size="14.00">38*</text>
<polyline fill="none" stroke="black" points="226,-1 226,-37 "/>
<text text-anchor="middle" x="241" y="-13.4" font-family="Times,serif" font-size="14.00">__</text>
<polyline fill="none" stroke="black" points="256,-1 256,-37 "/>
<text text-anchor="middle" x="271" y="-13.4" font-family="Times,serif" font-size="14.00">__</text>
</g>
<!-- node1&#45;&gt;leaf1 -->
<g id="edge12" class="edge"><title>node1:f2&#45;&gt;leaf1</title>
<path fill="none" stroke="black" d="M328,-80C328,-66.7155 302.838,-52.3458 276.693,-41.0003"/>
<polygon fill="black" stroke="black" points="278.019,-37.7612 267.444,-37.1201 275.311,-44.2162 278.019,-37.7612"/>
</g>
<!-- leaf3 -->
<g id="node8" class="node"><title>leaf3</title>
<polygon fill="none" stroke="black" points="304,-1 304,-37 452,-37 452,-1 304,-1"/>
<text text-anchor="middle" x="322.5" y="-13.4" font-family="Times,serif" font-size="14.00">42*</text>
<polyline fill="none" stroke="black" points="341,-1 341,-37 "/>
<text text-anchor="middle" x="359.5" y="-13.4" font-family="Times,serif" font-size="14.00">51*</text>
<polyline fill="none" stroke="black" points="378,-1 378,-37 "/>
<text text-anchor="middle" x="396.5" y="-13.4" font-family="Times,serif" font-size="14.00">52*</text>
<polyline fill="none" stroke="black" points="415,-1 415,-37 "/>
<text text-anchor="middle" x="433.5" y="-13.4" font-family="Times,serif" font-size="14.00">56*</text>
</g>
<!-- node1&#45;&gt;leaf3 -->
<g id="edge14" class="edge"><title>node1:f4&#45;&gt;leaf3</title>
<path fill="none" stroke="black" d="M378,-80C378,-69.2537 378,-57.4248 378,-47.131"/>
<polygon fill="black" stroke="black" points="381.5,-47.0692 378,-37.0692 374.5,-47.0692 381.5,-47.0692"/>
</g>
<!-- leaf4 -->
<g id="node9" class="node"><title>leaf4</title>
<polygon fill="none" stroke="black" points="470,-1 470,-37 618,-37 618,-1 470,-1"/>
<text text-anchor="middle" x="488.5" y="-13.4" font-family="Times,serif" font-size="14.00">68*</text>
<polyline fill="none" stroke="black" points="507,-1 507,-37 "/>
<text text-anchor="middle" x="525.5" y="-13.4" font-family="Times,serif" font-size="14.00">69*</text>
<polyline fill="none" stroke="black" points="544,-1 544,-37 "/>
<text text-anchor="middle" x="562.5" y="-13.4" font-family="Times,serif" font-size="14.00">70*</text>
<polyline fill="none" stroke="black" points="581,-1 581,-37 "/>
<text text-anchor="middle" x="599.5" y="-13.4" font-family="Times,serif" font-size="14.00">79*</text>
</g>
<!-- node1&#45;&gt;leaf4 -->
<g id="edge16" class="edge"><title>node1:f6&#45;&gt;leaf4</title>
<path fill="none" stroke="black" d="M428,-80C428,-66.148 454.426,-51.8503 482.052,-40.6881"/>
<polygon fill="black" stroke="black" points="483.387,-43.9242 491.43,-37.028 480.842,-37.4032 483.387,-43.9242"/>
</g>
<!-- leaf5 -->
<g id="node10" class="node"><title>leaf5</title>
<polygon fill="none" stroke="black" points="636,-1 636,-37 770,-37 770,-1 636,-1"/>
<text text-anchor="middle" x="654.5" y="-13.4" font-family="Times,serif" font-size="14.00">81*</text>
<polyline fill="none" stroke="black" points="673,-1 673,-37 "/>
<text text-anchor="middle" x="691.5" y="-13.4" font-family="Times,serif" font-size="14.00">82*</text>
<polyline fill="none" stroke="black" points="710,-1 710,-37 "/>
<text text-anchor="middle" x="725" y="-13.4" font-family="Times,serif" font-size="14.00">__</text>
<polyline fill="none" stroke="black" points="740,-1 740,-37 "/>
<text text-anchor="middle" x="755" y="-13.4" font-family="Times,serif" font-size="14.00">__</text>
</g>
<!-- node2&#45;&gt;leaf5 -->
<g id="edge18" class="edge"><title>node2:f0&#45;&gt;leaf5</title>
<path fill="none" stroke="black" d="M758,-80C758,-65.7863 749.509,-53.4792 739.2,-43.7748"/>
<polygon fill="black" stroke="black" points="741.346,-41.0055 731.467,-37.1785 736.803,-46.3312 741.346,-41.0055"/>
</g>
<!-- leaf6 -->
<g id="node11" class="node"><title>leaf6</title>
<polygon fill="none" stroke="black" points="788,-1 788,-37 936,-37 936,-1 788,-1"/>
<text text-anchor="middle" x="806.5" y="-13.4" font-family="Times,serif" font-size="14.00">94*</text>
<polyline fill="none" stroke="black" points="825,-1 825,-37 "/>
<text text-anchor="middle" x="843.5" y="-13.4" font-family="Times,serif" font-size="14.00">95*</text>
<polyline fill="none" stroke="black" points="862,-1 862,-37 "/>
<text text-anchor="middle" x="880.5" y="-13.4" font-family="Times,serif" font-size="14.00">96*</text>
<polyline fill="none" stroke="black" points="899,-1 899,-37 "/>
<text text-anchor="middle" x="917.5" y="-13.4" font-family="Times,serif" font-size="14.00">97*</text>
</g>
<!-- node2&#45;&gt;leaf6 -->
<g id="edge20" class="edge"><title>node2:f2&#45;&gt;leaf6</title>
<path fill="none" stroke="black" d="M807,-80C807,-65.7863 815.491,-53.4792 825.8,-43.7748"/>
<polygon fill="black" stroke="black" points="828.197,-46.3312 833.533,-37.1785 823.654,-41.0055 828.197,-46.3312"/>
</g>
<!-- leaf7 -->
<g id="node12" class="node"><title>leaf7</title>
<polygon fill="none" stroke="black" points="954,-1 954,-37 1116,-37 1116,-1 954,-1"/>
<text text-anchor="middle" x="972.5" y="-13.4" font-family="Times,serif" font-size="14.00">98*</text>
<polyline fill="none" stroke="black" points="991,-1 991,-37 "/>
<text text-anchor="middle" x="1009.5" y="-13.4" font-family="Times,serif" font-size="14.00">99*</text>
<polyline fill="none" stroke="black" points="1028,-1 1028,-37 "/>
<text text-anchor="middle" x="1050" y="-13.4" font-family="Times,serif" font-size="14.00">100*</text>
<polyline fill="none" stroke="black" points="1072,-1 1072,-37 "/>
<text text-anchor="middle" x="1094" y="-13.4" font-family="Times,serif" font-size="14.00">105*</text>
</g>
<!-- node2&#45;&gt;leaf7 -->
<g id="edge22" class="edge"><title>node2:f4&#45;&gt;leaf7</title>
<path fill="none" stroke="black" d="M857,-80C857,-68.845 907.847,-52.4747 955.188,-39.6503"/>
<polygon fill="black" stroke="black" points="956.148,-43.0167 964.905,-37.0531 954.341,-36.2541 956.148,-43.0167"/>
</g>
</g>
</svg>
