<?xml version="1.0" encoding="UTF-8" standalone="no"?>
<!DOCTYPE svg PUBLIC "-//W3C//DTD SVG 1.1//EN"
 "http://www.w3.org/Graphics/SVG/1.1/DTD/svg11.dtd">
<!-- Generated by graphviz version 2.28.0 (20110509.1545)
 -->
<!-- Title: G Pages: 1 -->
<svg width="1125pt" height="206pt"
 viewBox="0.00 0.00 1125.00 206.00" xmlns="http://www.w3.org/2000/svg" xmlns:xlink="http://www.w3.org/1999/xlink">
<g id="graph1" class="graph" transform="scale(1 1) rotate(0) translate(4 202)">
<title>G</title>
<polygon fill="white" stroke="white" points="-4,5 -4,-202 1122,-202 1122,5 -4,5"/>
<!-- A -->
<g id="node1" class="node"><title>A</title>
<polygon fill="lightgrey" stroke="black" points="131,-123.602 94.9687,-86.6992 167.031,-86.6992 131,-123.602"/>
<text text-anchor="middle" x="131" y="-93.4" font-family="Times,serif" font-size="14.00">A</text>
</g>
<!-- B -->
<g id="node2" class="node"><title>B</title>
<polygon fill="lightgrey" stroke="black" points="220,-123.602 185.566,-86.6992 254.434,-86.6992 220,-123.602"/>
<text text-anchor="middle" x="220" y="-93.4" font-family="Times,serif" font-size="14.00">B</text>
</g>
<!-- node0 -->
<g id="node3" class="node"><title>node0</title>
<polygon fill="none" stroke="black" points="217.25,-161 217.25,-197 434.75,-197 434.75,-161 217.25,-161"/>
<text text-anchor="middle" x="227" y="-173.4" font-family="Times,serif" font-size="14.00"> </text>
<polyline fill="none" stroke="black" points="236.75,-161 236.75,-197 "/>
<text text-anchor="middle" x="251.75" y="-173.4" font-family="Times,serif" font-size="14.00">10</text>
<polyline fill="none" stroke="black" points="266.75,-161 266.75,-197 "/>
<text text-anchor="middle" x="276.5" y="-173.4" font-family="Times,serif" font-size="14.00"> </text>
<polyline fill="none" stroke="black" points="286.25,-161 286.25,-197 "/>
<text text-anchor="middle" x="301.25" y="-173.4" font-family="Times,serif" font-size="14.00">30</text>
<polyline fill="none" stroke="black" points="316.25,-161 316.25,-197 "/>
<text text-anchor="middle" x="326" y="-173.4" font-family="Times,serif" font-size="14.00"> </text>
<polyline fill="none" stroke="black" points="335.75,-161 335.75,-197 "/>
<text text-anchor="middle" x="350.75" y="-173.4" font-family="Times,serif" font-size="14.00">80</text>
<polyline fill="none" stroke="black" points="365.75,-161 365.75,-197 "/>
<text text-anchor="middle" x="375.5" y="-173.4" font-family="Times,serif" font-size="14.00"> </text>
<polyline fill="none" stroke="black" points="385.25,-161 385.25,-197 "/>
<text text-anchor="middle" x="400.25" y="-173.4" font-family="Times,serif" font-size="14.00">__</text>
<polyline fill="none" stroke="black" points="415.25,-161 415.25,-197 "/>
<text text-anchor="middle" x="425" y="-173.4" font-family="Times,serif" font-size="14.00"> </text>
</g>
<!-- node0&#45;&gt;A -->
<g id="edge2" class="edge"><title>node0:f0&#45;&gt;A</title>
<path fill="none" stroke="black" d="M227,-160C227,-155.762 183.412,-129.993 154.977,-113.633"/>
<polygon fill="black" stroke="black" points="156.417,-110.424 146,-108.491 152.937,-116.498 156.417,-110.424"/>
</g>
<!-- node0&#45;&gt;B -->
<g id="edge4" class="edge"><title>node0:f2&#45;&gt;B</title>
<path fill="none" stroke="black" d="M276,-160C276,-139.87 258.946,-123.685 243.66,-113.222"/>
<polygon fill="black" stroke="black" points="245.327,-110.134 235.007,-107.735 241.578,-116.046 245.327,-110.134"/>
</g>
<!-- node1 -->
<g id="node4" class="node"><title>node1</title>
<polygon fill="none" stroke="black" points="273.25,-81 273.25,-117 490.75,-117 490.75,-81 273.25,-81"/>
<text text-anchor="middle" x="283" y="-93.4" font-family="Times,serif" font-size="14.00"> </text>
<polyline fill="none" stroke="black" points="292.75,-81 292.75,-117 "/>
<text text-anchor="middle" x="307.75" y="-93.4" font-family="Times,serif" font-size="14.00">35</text>
<polyline fill="none" stroke="black" points="322.75,-81 322.75,-117 "/>
<text text-anchor="middle" x="332.5" y="-93.4" font-family="Times,serif" font-size="14.00"> </text>
<polyline fill="none" stroke="black" points="342.25,-81 342.25,-117 "/>
<text text-anchor="middle" x="357.25" y="-93.4" font-family="Times,serif" font-size="14.00">50</text>
<polyline fill="none" stroke="black" points="372.25,-81 372.25,-117 "/>
<text text-anchor="middle" x="382" y="-93.4" font-family="Times,serif" font-size="14.00"> </text>
<polyline fill="none" stroke="black" points="391.75,-81 391.75,-117 "/>
<text text-anchor="middle" x="406.75" y="-93.4" font-family="Times,serif" font-size="14.00">65</text>
<polyline fill="none" stroke="black" points="421.75,-81 421.75,-117 "/>
<text text-anchor="middle" x="431.5" y="-93.4" font-family="Times,serif" font-size="14.00"> </text>
<polyline fill="none" stroke="black" points="441.25,-81 441.25,-117 "/>
<text text-anchor="middle" x="456.25" y="-93.4" font-family="Times,serif" font-size="14.00">__</text>
<polyline fill="none" stroke="black" points="471.25,-81 471.25,-117 "/>
<text text-anchor="middle" x="481" y="-93.4" font-family="Times,serif" font-size="14.00"> </text>
</g>
<!-- node0&#45;&gt;node1 -->
<g id="edge6" class="edge"><title>node0:f4&#45;&gt;node1</title>
<path fill="none" stroke="black" d="M326,-160C326,-145.668 334.645,-133.335 345.142,-123.644"/>
<polygon fill="black" stroke="black" points="347.588,-126.161 353.016,-117.063 343.098,-120.79 347.588,-126.161"/>
</g>
<!-- node2 -->
<g id="node5" class="node"><title>node2</title>
<polygon fill="none" stroke="black" points="749.25,-81 749.25,-117 966.75,-117 966.75,-81 749.25,-81"/>
<text text-anchor="middle" x="759" y="-93.4" font-family="Times,serif" font-size="14.00"> </text>
<polyline fill="none" stroke="black" points="768.75,-81 768.75,-117 "/>
<text text-anchor="middle" x="783.75" y="-93.4" font-family="Times,serif" font-size="14.00">90</text>
<polyline fill="none" stroke="black" points="798.75,-81 798.75,-117 "/>
<text text-anchor="middle" x="808.5" y="-93.4" font-family="Times,serif" font-size="14.00"> </text>
<polyline fill="none" stroke="black" points="818.25,-81 818.25,-117 "/>
<text text-anchor="middle" x="833.25" y="-93.4" font-family="Times,serif" font-size="14.00">98</text>
<polyline fill="none" stroke="black" points="848.25,-81 848.25,-117 "/>
<text text-anchor="middle" x="858" y="-93.4" font-family="Times,serif" font-size="14.00"> </text>
<polyline fill="none" stroke="black" points="867.75,-81 867.75,-117 "/>
<text text-anchor="middle" x="882.75" y="-93.4" font-family="Times,serif" font-size="14.00">__</text>
<polyline fill="none" stroke="black" points="897.75,-81 897.75,-117 "/>
<text text-anchor="middle" x="907.5" y="-93.4" font-family="Times,serif" font-size="14.00"> </text>
<polyline fill="none" stroke="black" points="917.25,-81 917.25,-117 "/>
<text text-anchor="middle" x="932.25" y="-93.4" font-family="Times,serif" font-size="14.00">__</text>
<polyline fill="none" stroke="black" points="947.25,-81 947.25,-117 "/>
<text text-anchor="middle" x="957" y="-93.4" font-family="Times,serif" font-size="14.00"> </text>
</g>
<!-- node0&#45;&gt;node2 -->
<g id="edge8" class="edge"><title>node0:f6&#45;&gt;node2</title>
<path fill="none" stroke="black" d="M376,-160C376,-141.754 596.364,-120.751 739.091,-109.061"/>
<polygon fill="black" stroke="black" points="739.546,-112.536 749.229,-108.236 738.978,-105.559 739.546,-112.536"/>
</g>
<!-- leaf0 -->
<g id="node6" class="node"><title>leaf0</title>
<polygon fill="none" stroke="black" points="0,-1 0,-37 134,-37 134,-1 0,-1"/>
<text text-anchor="middle" x="18.5" y="-13.4" font-family="Times,serif" font-size="14.00">30*</text>
<polyline fill="none" stroke="black" points="37,-1 37,-37 "/>
<text text-anchor="middle" x="55.5" y="-13.4" font-family="Times,serif" font-size="14.00">31*</text>
<polyline fill="none" stroke="black" points="74,-1 74,-37 "/>
<text text-anchor="middle" x="89" y="-13.4" font-family="Times,serif" font-size="14.00">__</text>
<polyline fill="none" stroke="black" points="104,-1 104,-37 "/>
<text text-anchor="middle" x="119" y="-13.4" font-family="Times,serif" font-size="14.00">__</text>
</g>
<!-- node1&#45;&gt;leaf0 -->
<g id="edge10" class="edge"><title>node1:f0&#45;&gt;leaf0</title>
<path fill="none" stroke="black" d="M272,-99C260.191,-99 271.664,-82.024 263,-74 258.337,-69.6821 196.876,-53.1288 144.005,-39.4751"/>
<polygon fill="black" stroke="black" points="144.806,-36.0671 134.249,-36.963 143.06,-42.846 144.806,-36.0671"/>
</g>
<!-- leaf1 -->
<g id="node7" class="node"><title>leaf1</title>
<polygon fill="none" stroke="black" points="152.5,-1 152.5,-37 293.5,-37 293.5,-1 152.5,-1"/>
<text text-anchor="middle" x="171" y="-13.4" font-family="Times,serif" font-size="14.00">36*</text>
<polyline fill="none" stroke="black" points="189.5,-1 189.5,-37 "/>
<text text-anchor="middle" x="208" y="-13.4" font-family="Times,serif" font-size="14.00">38*</text>
<polyline fill="none" stroke="black" points="226.5,-1 226.5,-37 "/>
<text text-anchor="middle" x="245" y="-13.4" font-family="Times,serif" font-size="14.00">42*</text>
<polyline fill="none" stroke="black" points="263.5,-1 263.5,-37 "/>
<text text-anchor="middle" x="278.5" y="-13.4" font-family="Times,serif" font-size="14.00">__</text>
</g>
<!-- node1&#45;&gt;leaf1 -->
<g id="edge12" class="edge"><title>node1:f2&#45;&gt;leaf1</title>
<path fill="none" stroke="black" d="M332,-80C332,-61.1454 319.329,-48.1729 302.626,-39.2633"/>
<polygon fill="black" stroke="black" points="304.105,-36.0911 293.571,-34.9649 301.104,-42.4149 304.105,-36.0911"/>
</g>
<!-- leaf3 -->
<g id="node8" class="node"><title>leaf3</title>
<polygon fill="none" stroke="black" points="311.5,-1 311.5,-37 452.5,-37 452.5,-1 311.5,-1"/>
<text text-anchor="middle" x="330" y="-13.4" font-family="Times,serif" font-size="14.00">51*</text>
<polyline fill="none" stroke="black" points="348.5,-1 348.5,-37 "/>
<text text-anchor="middle" x="367" y="-13.4" font-family="Times,serif" font-size="14.00">52*</text>
<polyline fill="none" stroke="black" points="385.5,-1 385.5,-37 "/>
<text text-anchor="middle" x="404" y="-13.4" font-family="Times,serif" font-size="14.00">56*</text>
<polyline fill="none" stroke="black" points="422.5,-1 422.5,-37 "/>
<text text-anchor="middle" x="437.5" y="-13.4" font-family="Times,serif" font-size="14.00">__</text>
</g>
<!-- node1&#45;&gt;leaf3 -->
<g id="edge14" class="edge"><title>node1:f4&#45;&gt;leaf3</title>
<path fill="none" stroke="black" d="M382,-80C382,-69.2537 382,-57.4248 382,-47.131"/>
<polygon fill="black" stroke="black" points="385.5,-47.0692 382,-37.0692 378.5,-47.0692 385.5,-47.0692"/>
</g>
<!-- leaf4 -->
<g id="node9" class="node"><title>leaf4</title>
<polygon fill="none" stroke="black" points="471,-1 471,-37 619,-37 619,-1 471,-1"/>
<text text-anchor="middle" x="489.5" y="-13.4" font-family="Times,serif" font-size="14.00">68*</text>
<polyline fill="none" stroke="black" points="508,-1 508,-37 "/>
<text text-anchor="middle" x="526.5" y="-13.4" font-family="Times,serif" font-size="14.00">69*</text>
<polyline fill="none" stroke="black" points="545,-1 545,-37 "/>
<text text-anchor="middle" x="563.5" y="-13.4" font-family="Times,serif" font-size="14.00">70*</text>
<polyline fill="none" stroke="black" points="582,-1 582,-37 "/>
<text text-anchor="middle" x="600.5" y="-13.4" font-family="Times,serif" font-size="14.00">79*</text>
</g>
<!-- node1&#45;&gt;leaf4 -->
<g id="edge16" class="edge"><title>node1:f6&#45;&gt;leaf4</title>
<path fill="none" stroke="black" d="M432,-80C432,-60.8959 444.755,-47.8561 461.694,-38.9621"/>
<polygon fill="black" stroke="black" points="463.302,-42.0744 470.888,-34.6788 460.346,-35.7292 463.302,-42.0744"/>
</g>
<!-- leaf5 -->
<g id="node10" class="node"><title>leaf5</title>
<polygon fill="none" stroke="black" points="637,-1 637,-37 771,-37 771,-1 637,-1"/>
<text text-anchor="middle" x="655.5" y="-13.4" font-family="Times,serif" font-size="14.00">81*</text>
<polyline fill="none" stroke="black" points="674,-1 674,-37 "/>
<text text-anchor="middle" x="692.5" y="-13.4" font-family="Times,serif" font-size="14.00">82*</text>
<polyline fill="none" stroke="black" points="711,-1 711,-37 "/>
<text text-anchor="middle" x="726" y="-13.4" font-family="Times,serif" font-size="14.00">__</text>
<polyline fill="none" stroke="black" points="741,-1 741,-37 "/>
<text text-anchor="middle" x="756" y="-13.4" font-family="Times,serif" font-size="14.00">__</text>
</g>
<!-- node2&#45;&gt;leaf5 -->
<g id="edge18" class="edge"><title>node2:f0&#45;&gt;leaf5</title>
<path fill="none" stroke="black" d="M759,-80C759,-65.7863 750.509,-53.4792 740.2,-43.7748"/>
<polygon fill="black" stroke="black" points="742.346,-41.0055 732.467,-37.1785 737.803,-46.3312 742.346,-41.0055"/>
</g>
<!-- leaf6 -->
<g id="node11" class="node"><title>leaf6</title>
<polygon fill="none" stroke="black" points="789,-1 789,-37 937,-37 937,-1 789,-1"/>
<text text-anchor="middle" x="807.5" y="-13.4" font-family="Times,serif" font-size="14.00">94*</text>
<polyline fill="none" stroke="black" points="826,-1 826,-37 "/>
<text text-anchor="middle" x="844.5" y="-13.4" font-family="Times,serif" font-size="14.00">95*</text>
<polyline fill="none" stroke="black" points="863,-1 863,-37 "/>
<text text-anchor="middle" x="881.5" y="-13.4" font-family="Times,serif" font-size="14.00">96*</text>
<polyline fill="none" stroke="black" points="900,-1 900,-37 "/>
<text text-anchor="middle" x="918.5" y="-13.4" font-family="Times,serif" font-size="14.00">97*</text>
</g>
<!-- node2&#45;&gt;leaf6 -->
<g id="edge20" class="edge"><title>node2:f2&#45;&gt;leaf6</title>
<path fill="none" stroke="black" d="M808,-80C808,-65.7863 816.491,-53.4792 826.8,-43.7748"/>
<polygon fill="black" stroke="black" points="829.197,-46.3312 834.533,-37.1785 824.654,-41.0055 829.197,-46.3312"/>
</g>
<!-- leaf7 -->
<g id="node12" class="node"><title>leaf7</title>
<polygon fill="none" stroke="black" points="955,-1 955,-37 1117,-37 1117,-1 955,-1"/>
<text text-anchor="middle" x="973.5" y="-13.4" font-family="Times,serif" font-size="14.00">98*</text>
<polyline fill="none" stroke="black" points="992,-1 992,-37 "/>
<text text-anchor="middle" x="1010.5" y="-13.4" font-family="Times,serif" font-size="14.00">99*</text>
<polyline fill="none" stroke="black" points="1029,-1 1029,-37 "/>
<text text-anchor="middle" x="1051" y="-13.4" font-family="Times,serif" font-size="14.00">100*</text>
<polyline fill="none" stroke="black" points="1073,-1 1073,-37 "/>
<text text-anchor="middle" x="1095" y="-13.4" font-family="Times,serif" font-size="14.00">105*</text>
</g>
<!-- node2&#45;&gt;leaf7 -->
<g id="edge22" class="edge"><title>node2:f4&#45;&gt;leaf7</title>
<path fill="none" stroke="black" d="M858,-80C858,-68.845 908.847,-52.4747 956.188,-39.6503"/>
<polygon fill="black" stroke="black" points="957.148,-43.0167 965.905,-37.0531 955.341,-36.2541 957.148,-43.0167"/>
</g>
</g>
</svg>
